<?xml version="1.0" standalone="no"?>
<!DOCTYPE svg PUBLIC "-//W3C//DTD SVG 20010904//EN"
 "http://www.w3.org/TR/2001/REC-SVG-20010904/DTD/svg10.dtd">
<svg version="1.0" xmlns="http://www.w3.org/2000/svg"
 width="512.000000pt" height="512.000000pt" viewBox="0 0 512.000000 512.000000"
 preserveAspectRatio="xMidYMid meet">
<metadata>
Created by potrace 1.14, written by Peter Selinger 2001-2017
</metadata>
<g transform="translate(0.000000,512.000000) scale(0.100000,-0.100000)"
fill="#000000" stroke="none">
<path d="M304 4163 l1 -958 25 0 c44 -1 50 -12 49 -84 -1 -56 -4 -68 -18 -68
-9 0 -25 -1 -37 -2 l-21 -1 2 -572 c1 -434 4 -584 14 -618 32 -112 121 -230
215 -285 54 -32 161 -64 218 -66 43 -2 47 -4 67 -46 l21 -43 -379 -378 c-349
-348 -381 -382 -411 -446 -60 -128 -48 -288 30 -402 125 -181 361 -236 549
-128 27 16 208 188 432 411 l386 385 86 -31 c270 -95 553 -98 827 -9 306 99
592 344 734 629 l28 55 759 0 c418 -1 759 1 759 4 0 3 12 7 28 8 75 6 210 74
280 141 59 57 115 138 145 212 22 53 22 64 25 556 l3 503 -476 -1 c-261 0
-479 2 -483 5 -4 2 -7 495 -7 1095 l0 1091 -837 0 -838 0 0 -33 0 -32 -75 0
-75 -1 0 33 0 33 -1013 0 -1014 0 1 -957z"/>
</g>
</svg>
